<svg width="646" height="102" viewBox="0 0 646 102" fill="none" xmlns="http://www.w3.org/2000/svg">
<path d="M81.3128 101.499L50.4652 44.6371H50.1809L38.382 101.499H0.00021668L21.0391 0.000423997H66.813L95.8126 56.2938H96.2391L107.896 0.000423997L146.278 0.000423997L125.239 101.499L81.3128 101.499ZM137.685 101.499L158.724 0.000423997L198.812 0.000423997L183.317 74.2053H245.438L239.894 101.499H137.685ZM243.718 101.499L264.757 0.000423997L356.731 0.000423997C364.55 0.000423997 370.662 1.56413 375.069 4.54938C379.334 7.53464 381.608 12.0836 381.608 18.1963C381.608 24.4511 380.045 29.9951 376.917 34.8284C373.79 39.8038 369.667 43.2155 364.55 45.0635V45.3478C368.53 46.4851 371.658 48.6174 373.932 51.887C376.206 55.2987 377.486 59.1369 377.486 63.6858C377.486 68.5191 376.206 73.6367 373.79 79.0385C371.373 84.5826 367.961 88.9894 363.697 92.4011C359.29 95.8128 354.315 98.0873 348.913 99.5089C343.511 100.93 337.54 101.499 331.286 101.499H243.718ZM298.874 24.7354L296.173 37.8136H326.594C330.717 37.8136 333.56 37.1029 335.266 35.6813C336.972 34.2598 337.825 31.9853 337.825 29.1422C337.825 27.5785 337.114 26.4412 335.692 25.7305C334.271 25.1618 332.138 24.7354 329.295 24.7354H298.874ZM291.34 60.8427L288.07 76.7641H322.756C326.737 76.7641 329.58 75.9111 331.57 73.921C333.56 72.073 334.555 69.6563 334.555 66.6711C334.555 64.6809 333.702 63.1172 331.996 62.2643C330.29 61.4113 327.732 60.8427 324.178 60.8427H291.34ZM459.794 101.499C459.509 100.93 459.367 99.9353 459.367 98.7981C459.367 97.6608 459.509 96.0971 459.794 94.107L461.499 82.4503C461.784 80.7444 461.926 79.465 461.926 78.6121C461.926 75.769 461.215 73.6367 459.794 72.2151C458.372 70.9357 456.382 70.2249 453.965 70.2249H425.25L418.853 101.499H378.765L399.804 0.000423997L486.661 0.000423997C498.602 0.000423997 506.705 2.13275 510.685 6.25524C514.665 10.3777 516.798 15.7796 516.798 22.3187C516.656 29.1422 514.665 35.397 510.685 41.0832C506.705 46.7694 501.729 50.1811 495.759 51.4605L495.617 51.7448C501.161 53.5928 504.004 57.7153 504.004 64.2544C504.004 65.2495 503.862 66.9554 503.577 69.2299L501.445 86.1463C501.161 89.558 501.018 91.9746 501.018 93.6805C501.018 95.2442 501.303 96.8079 501.871 98.3716C502.44 99.9353 503.009 100.93 503.577 101.499H459.794ZM434.632 25.5883L430.652 44.6371H459.794C464.058 44.6371 467.328 43.4998 469.318 41.2253C471.308 38.9509 472.445 35.9656 472.445 32.2696C472.445 29.853 471.592 28.1471 469.887 27.152C468.181 26.1569 465.906 25.5883 463.063 25.5883H434.632ZM535.123 101.499L550.903 25.5883H513.8L519.06 0.000423997L633.352 0.000423997L628.093 25.5883H590.99L575.211 101.499L535.123 101.499ZM601.951 101.499L608.49 69.6563H645.734L639.195 101.499H601.951Z" fill="white"/>
</svg>
